<svg width="569" height="224" viewBox="0 0 569 224" fill="none" xmlns="http://www.w3.org/2000/svg">
<path fill-rule="evenodd" clip-rule="evenodd" d="M100.079 1.88765C107.815 1.31923 114.529 3.62634 120.22 8.809C130.509 22.6516 140.999 36.2846 151.691 49.7079C169.619 46.9542 187.663 45.9055 205.822 46.5618C216.442 49.7421 222.317 56.8732 223.446 67.9551C221.93 73.3966 221.93 78.8499 223.446 84.3146C223.771 89.2478 221.672 92.8134 217.152 95.0112C231.748 105.202 234.895 118.205 226.593 134.022C220.363 139.67 213.02 143.027 204.563 144.09C209.442 154.109 212.8 164.596 214.634 175.551C212.797 192.846 203.146 200.606 185.68 198.831C168.958 192.63 152.174 186.547 135.326 180.584C125.064 190.214 114.993 200.071 105.114 210.157C85.272 223.96 71.2148 219.555 62.9425 196.944C62.4635 180.457 60.9949 164.098 58.5365 147.865C46.9945 140.627 35.2453 133.705 23.2887 127.101C5.65609 114.929 3.97762 101.087 18.2533 85.573C21.6103 83.8952 24.9671 82.2172 28.3241 80.5393C42.173 76.2049 55.8106 71.381 69.2367 66.0674C73.4928 51.0866 77.2693 35.9855 80.5664 20.7641C84.3033 11.479 90.8074 5.18684 100.079 1.88765Z" fill="#FEEE8E"/>
<path fill-rule="evenodd" clip-rule="evenodd" d="M207.081 72.3595C208.217 67.0022 206.119 63.8561 200.786 62.9213C181.485 63.7603 162.181 64.5992 142.879 65.4382C132.05 52.9355 122.188 39.722 113.296 25.7978C107.169 15.8501 101.294 15.8501 95.6726 25.7978C92.8571 43.3474 88.661 60.5459 83.0841 77.3933C82.0351 78.4419 80.9859 79.4907 79.9369 80.5393C61.829 85.5937 44.2051 91.8858 27.0653 99.4157C23.6408 104.293 24.48 108.487 29.583 112C45.5652 120.44 60.8812 129.878 75.531 140.315C76.3967 158.382 77.6555 176.42 79.3075 194.427C80.1055 198.37 82.4133 200.886 86.2312 201.978C89.745 200.43 93.1019 198.542 96.302 196.315C106.991 183.448 119.16 172.331 132.809 162.966C150.575 169.085 168.199 175.586 185.68 182.472C195.541 184.36 199.528 180.374 197.639 170.517C192.487 158.839 188.081 146.884 184.421 134.652C184.51 133.689 184.929 133.06 185.68 132.764C189.706 138.346 195.161 141.701 202.045 142.831C204.386 150.898 207.113 158.868 210.228 166.742C213.347 188.792 203.906 198.23 181.904 195.056C166.613 188.772 151.086 183.109 135.326 178.067C130.983 180.929 126.788 184.075 122.738 187.506C115.117 195.124 107.564 202.675 100.079 210.157C81.089 219.857 69.5495 214.194 65.4602 193.169C64.8732 177.613 63.8242 162.093 62.313 146.607C47.6264 137.588 32.9399 128.57 18.2533 119.551C8.75607 107.253 10.0149 96.3469 22.0299 86.8315C38.6118 80.747 55.1866 74.6645 71.7544 68.5843C76.4907 53.3012 80.2673 37.7806 83.0841 22.0225C89.3273 6.62874 100.028 2.22424 115.185 8.80899C118.332 11.9551 121.479 15.1011 124.626 18.2472C132.323 29.7171 140.505 40.8332 149.174 51.5955C164.759 51.7411 180.286 50.6923 195.751 48.4494C212.816 48.7138 220.369 57.1033 218.41 73.618C214.791 71.0425 211.015 70.6229 207.081 72.3595Z" fill="#853D25"/>
<path fill-rule="evenodd" clip-rule="evenodd" d="M207.081 72.3595C196.236 77.2621 190.361 85.6517 189.457 97.5281C188.617 97.9475 187.779 98.3671 186.939 98.7865C186.939 92.9138 186.939 87.0412 186.939 81.1685C187.391 78.814 188.65 76.9264 190.716 75.5056C184.19 74.4784 177.896 74.688 171.833 76.1348C171.414 76.1348 170.993 76.1348 170.574 76.1348C162.638 77.0908 154.666 77.5103 146.656 77.3932C142.46 76.1348 138.263 74.8764 134.067 73.618C124.415 61.2349 114.973 48.6507 105.743 35.8652C102.808 48.4433 99.8703 61.0275 96.9314 73.618C95.7743 78.6745 93.6762 83.2886 90.6372 87.4607C74.8103 94.2745 58.6551 100.357 42.1715 105.708C56.9765 113.628 71.0337 122.647 84.3429 132.764C85.1822 134.442 86.0213 136.12 86.8606 137.798C88.1751 153.733 89.434 169.674 90.6372 185.618C99.5909 176.667 108.613 167.649 117.702 158.562C120.75 155.927 124.107 153.83 127.773 152.27C146.946 155.229 165.409 160.892 183.163 169.258C183.582 168.839 184.002 168.419 184.421 168C180.756 159.839 177.819 151.449 175.61 142.831C181.147 140.591 183.875 136.396 183.792 130.247C184.695 130.932 185.324 131.771 185.68 132.764C184.929 133.06 184.51 133.689 184.421 134.652C188.081 146.884 192.487 158.839 197.639 170.517C199.528 180.374 195.541 184.36 185.68 182.472C168.199 175.586 150.575 169.085 132.809 162.966C119.16 172.331 106.991 183.448 96.302 196.315C93.1019 198.542 89.745 200.43 86.2312 201.978C82.4134 200.886 80.1055 198.37 79.3075 194.427C77.6555 176.42 76.3967 158.382 75.531 140.315C60.8812 129.878 45.5652 120.44 29.583 112C24.48 108.487 23.6408 104.292 27.0653 99.4157C44.2051 91.8858 61.829 85.5937 79.9369 80.5393C80.9859 79.4907 82.0351 78.4419 83.0841 77.3932C88.661 60.5459 92.8571 43.3474 95.6726 25.7977C101.294 15.8501 107.169 15.8501 113.296 25.7977C122.188 39.722 132.05 52.9355 142.879 65.4382C162.181 64.5992 181.485 63.7603 200.786 62.9213C206.119 63.8561 208.217 67.0022 207.081 72.3595Z" fill="#F95F27"/>
<path fill-rule="evenodd" clip-rule="evenodd" d="M422.344 63.5506C418.812 58.9733 414.616 54.9883 409.756 51.5955C405.979 50.7565 402.202 50.7565 398.426 51.5955C394.623 53.0802 390.846 54.5484 387.096 56C392.094 52.0502 396.5 47.436 400.314 42.1573C401.154 38.382 401.154 34.6067 400.314 30.8315C394.357 17.9978 395.197 17.5783 402.832 29.573C406.84 33.7817 411.666 35.2499 417.309 33.9775C421.629 32.6296 425.825 31.3712 429.897 30.2022C416.015 38.5827 413.497 49.6989 422.344 63.5506Z" fill="#F95F27"/>
<path fill-rule="evenodd" clip-rule="evenodd" d="M481.51 146.607C494.061 147.471 499.096 141.599 496.616 128.989C513.2 111.349 520.964 90.3757 519.905 66.0674C513.831 50.3719 502.292 41.7726 485.287 40.2697C474.797 39.4307 464.305 39.4307 453.815 40.2697C424.358 46.6802 423.939 45.4218 452.556 36.4944C475.047 30.1764 497.706 29.3375 520.534 33.9775C540.305 41.8251 548.067 56.297 543.823 77.3933C534.113 105.38 517.959 129.079 495.357 148.494C469.921 170.541 441.806 188.578 411.014 202.607C405.677 205.087 400.222 206.766 394.649 207.64C427.215 192.222 456.168 171.877 481.51 146.607Z" fill="#F95F27"/>
<path fill-rule="evenodd" clip-rule="evenodd" d="M134.067 73.618C129.915 72.5155 125.719 72.3057 121.479 72.9888C118.26 73.8512 115.952 75.7388 114.555 78.6517C112.275 95.7767 111.436 112.975 112.038 130.247C113.63 136.038 117.407 138.974 123.367 139.056C138.676 137.074 150.845 129.944 159.874 117.663C160.365 121.865 160.156 126.06 159.244 130.247C159.937 140.853 165.393 145.049 175.61 142.831C177.819 151.449 180.756 159.839 184.421 168C184.002 168.419 183.582 168.839 183.163 169.258C165.409 160.892 146.946 155.229 127.773 152.27C124.107 153.83 120.75 155.927 117.702 158.562C108.613 167.649 99.5909 176.667 90.6372 185.618C89.434 169.674 88.1751 153.733 86.8606 137.798C86.0213 136.12 85.1822 134.442 84.3429 132.764C71.0337 122.647 56.9765 113.628 42.1715 105.708C58.6551 100.357 74.8103 94.2746 90.6372 87.4607C93.6762 83.2886 95.7743 78.6745 96.9314 73.618C99.8703 61.0275 102.808 48.4433 105.743 35.8652C114.973 48.6507 124.415 61.2349 134.067 73.618Z" fill="#75290F"/>
<path fill-rule="evenodd" clip-rule="evenodd" d="M387.096 56C386.464 57.9942 385.205 58.6234 383.32 57.8876C384.256 56.5806 385.515 55.9514 387.096 56Z" fill="#F585B2"/>
<path fill-rule="evenodd" clip-rule="evenodd" d="M422.344 63.5506C424.339 64.1828 424.969 65.4412 424.232 67.3258C422.924 66.3898 422.295 65.1314 422.344 63.5506Z" fill="#F58AB6"/>
<path fill-rule="evenodd" clip-rule="evenodd" d="M496.616 128.989C499.096 141.599 494.061 147.471 481.51 146.607C456.852 146.102 432.094 145.892 407.238 145.978C405.373 144.744 403.694 143.276 402.202 141.573C394.389 145.891 385.996 147.568 377.025 146.607C371.99 146.397 366.955 146.188 361.919 145.978C358.631 145.173 355.693 143.705 353.107 141.573C351.184 143.286 349.085 144.754 346.813 145.978C314.822 146.057 282.931 146.057 251.14 145.978C243.757 144.076 238.512 139.672 235.405 132.764C234.009 124.26 233.379 115.661 233.517 106.966C233.727 99.6255 233.936 92.2846 234.146 84.9438C236.874 77.1835 242.118 71.9401 249.882 69.2135C269.675 68.9099 289.396 68.7003 309.048 68.5843C313.243 68.794 317.44 69.0037 321.636 69.2135C324.144 69.9362 326.032 71.4044 327.301 73.618C327.93 86.615 328.139 99.6187 327.93 112.629C333.385 112.629 338.841 112.629 344.295 112.629C338.84 75.9302 354.365 61.4583 390.873 69.2135C394.917 69.9758 398.694 71.444 402.202 73.618C403.29 71.4831 404.968 70.0148 407.238 69.2135C411.434 69.0037 415.631 68.794 419.826 68.5843C443.85 68.7831 467.768 68.9929 491.581 69.2135C493.05 70.6817 494.518 72.1498 495.987 73.618C496.616 92.0702 496.826 110.527 496.616 128.989Z" fill="#FEED8D"/>
<path fill-rule="evenodd" clip-rule="evenodd" d="M171.833 76.1348C177.896 74.688 184.19 74.4784 190.716 75.5056C188.65 76.9264 187.391 78.814 186.939 81.1685C182.995 76.6661 177.96 74.9883 171.833 76.1348Z" fill="#75290F"/>
<path fill-rule="evenodd" clip-rule="evenodd" d="M249.882 74.8764C264.148 74.8764 278.416 74.8764 292.683 74.8764C293.07 82.3331 292.651 89.674 291.424 96.8989C282.622 97.5276 273.81 97.7374 264.988 97.5281C264.575 104.292 264.994 111.003 266.247 117.663C266.984 117.4 267.614 116.98 268.135 116.404C268.763 111.388 268.973 106.354 268.764 101.303C276.737 101.303 284.71 101.303 292.683 101.303C292.683 114.307 292.683 127.311 292.683 140.315C278.829 140.525 264.982 140.315 251.141 139.685C245.895 137.798 242.329 134.233 240.44 128.989C239.601 114.307 239.601 99.6255 240.44 84.9438C242.993 80.9267 246.14 77.5708 249.882 74.8764Z" fill="#068688"/>
<path fill-rule="evenodd" clip-rule="evenodd" d="M297.718 74.8764C305.69 74.8764 313.664 74.8764 321.636 74.8764C321.636 89.1385 321.636 103.401 321.636 117.663C329.62 117.454 337.592 117.664 345.554 118.292C347.232 125.423 347.232 132.554 345.554 139.685C329.615 140.315 313.669 140.525 297.718 140.315C297.718 118.502 297.718 96.6891 297.718 74.8764Z" fill="#068688"/>
<path fill-rule="evenodd" clip-rule="evenodd" d="M360.66 74.8764C371.159 74.667 381.649 74.8768 392.132 75.5056C395.957 76.8036 399.104 79.1106 401.573 82.427C403.62 97.8267 404.039 113.347 402.832 128.989C400.852 134.741 396.865 138.306 390.873 139.685C381.221 140.525 371.571 140.525 361.919 139.685C356.674 137.798 353.107 134.233 351.219 128.989C350.379 114.307 350.379 99.6255 351.219 84.9438C353.772 80.9267 356.919 77.5708 360.66 74.8764Z" fill="#068688"/>
<path fill-rule="evenodd" clip-rule="evenodd" d="M408.497 74.8764C416.469 74.8764 424.443 74.8764 432.415 74.8764C432.415 88.2997 432.415 101.723 432.415 115.146C433.674 115.146 434.933 115.146 436.191 115.146C435.982 102.136 436.191 89.1319 436.821 76.1348C444.89 74.9045 453.073 74.485 461.368 74.8764C461.368 88.2997 461.368 101.723 461.368 115.146C462.627 115.146 463.886 115.146 465.145 115.146C464.936 102.136 465.145 89.1319 465.774 76.1348C473.433 74.6977 481.197 74.4879 489.063 75.5056C490.521 96.5961 490.731 117.78 489.693 139.056C476.998 140.297 464.2 140.716 451.298 140.315C451.298 135.7 451.298 131.087 451.298 126.472C450.039 126.472 448.78 126.472 447.521 126.472C447.885 131.01 447.466 135.414 446.262 139.685C433.681 140.315 421.093 140.523 408.497 140.315C408.497 118.502 408.497 96.6891 408.497 74.8764Z" fill="#068688"/>
<path fill-rule="evenodd" clip-rule="evenodd" d="M170.574 76.1348C164.357 80.6722 161.63 86.9643 162.392 95.0112C158.177 88.0793 152.931 82.2066 146.656 77.3933C154.666 77.5103 162.638 77.0909 170.574 76.1348Z" fill="#75290F"/>
<path fill-rule="evenodd" clip-rule="evenodd" d="M121.479 78.6517C137.419 77.2313 148.957 83.5234 156.097 97.5281C158.488 112.255 152.823 122.532 139.103 128.36C134.172 130.213 129.137 131.681 123.997 132.764C121.638 132.902 119.749 132.064 118.332 130.247C117.621 114.284 118.041 98.3442 119.591 82.427C120.237 81.1351 120.866 79.8766 121.479 78.6517Z" fill="#068688"/>
<path fill-rule="evenodd" clip-rule="evenodd" d="M208.34 77.3933C215.033 76.8204 218.18 79.7567 217.781 86.2023C215.163 88.2451 212.436 90.1327 209.598 91.8652C207.792 94.7183 208.211 97.2351 210.857 99.4157C224.532 105.55 228.519 115.408 222.816 128.989C216.121 136.12 207.938 138.428 198.269 135.91C192.593 133.478 190.075 129.493 190.716 123.955C194.721 120.437 198.498 120.647 202.045 124.584C207.589 126.009 211.366 124.121 213.375 118.921C213.203 116.899 212.363 115.221 210.857 113.888C191.738 102.998 190.898 90.8335 208.34 77.3933Z" fill="#068688"/>
<path fill-rule="evenodd" clip-rule="evenodd" d="M173.092 81.1685C178.205 80.5538 181.142 82.6512 181.904 87.4607C179.959 102.932 178.49 118.452 177.498 134.022C174.091 138.399 170.315 138.818 166.168 135.281C165.848 120.133 166.688 105.032 168.686 89.9775C168.853 86.3228 170.322 83.3864 173.092 81.1685Z" fill="#068688"/>
<path fill-rule="evenodd" clip-rule="evenodd" d="M131.55 92.4944C143.694 94.2926 147.261 100.585 142.25 111.371C139.368 114.595 135.801 116.693 131.55 117.663C130.229 109.285 130.229 100.895 131.55 92.4944Z" fill="#FEEC8B"/>
<path fill-rule="evenodd" clip-rule="evenodd" d="M375.767 93.7528C377.02 93.6448 378.069 94.0644 378.914 95.0112C379.753 103.401 379.753 111.79 378.914 120.18C378.393 120.755 377.763 121.175 377.025 121.438C375.77 112.248 375.35 103.019 375.767 93.7528Z" fill="#FEE289"/>
<path fill-rule="evenodd" clip-rule="evenodd" d="M189.457 97.5281C190.362 102.484 192.459 106.888 195.751 110.742C192.06 114.588 188.493 118.573 185.051 122.697C184.539 114.633 185.168 106.663 186.939 98.7865C187.779 98.3671 188.617 97.9475 189.457 97.5281Z" fill="#75290F"/>
<path fill-rule="evenodd" clip-rule="evenodd" d="M136.585 101.303C139.604 103.043 139.814 105.14 137.215 107.596C136.593 105.539 136.384 103.442 136.585 101.303Z" fill="#F4E5D6"/>
<path fill-rule="evenodd" clip-rule="evenodd" d="M197.01 112.629C200.502 114.168 203.859 116.055 207.081 118.292C202.774 118.029 199.418 116.141 197.01 112.629Z" fill="#FFFCE6"/>
</svg>
